<svg width="31" height="31" viewBox="0 0 31 31" fill="none" xmlns="http://www.w3.org/2000/svg">
<circle cx="15.5" cy="15.5" r="13.5" stroke="black" stroke-width="4"/>
<path d="M16.032 24.24C14.752 24.24 13.56 24.032 12.456 23.616C11.368 23.184 10.416 22.584 9.6 21.816C8.8 21.032 8.176 20.112 7.728 19.056C7.28 18 7.056 16.848 7.056 15.6C7.056 14.352 7.28 13.2 7.728 12.144C8.176 11.088 8.808 10.176 9.624 9.408C10.44 8.624 11.392 8.024 12.48 7.608C13.568 7.176 14.76 6.96 16.056 6.96C17.432 6.96 18.688 7.2 19.824 7.68C20.96 8.144 21.92 8.84 22.704 9.768L20.688 11.664C20.08 11.008 19.4 10.52 18.648 10.2C17.896 9.864 17.08 9.696 16.2 9.696C15.32 9.696 14.512 9.84 13.776 10.128C13.056 10.416 12.424 10.824 11.88 11.352C11.352 11.88 10.936 12.504 10.632 13.224C10.344 13.944 10.2 14.736 10.2 15.6C10.2 16.464 10.344 17.256 10.632 17.976C10.936 18.696 11.352 19.32 11.88 19.848C12.424 20.376 13.056 20.784 13.776 21.072C14.512 21.36 15.32 21.504 16.2 21.504C17.08 21.504 17.896 21.344 18.648 21.024C19.4 20.688 20.08 20.184 20.688 19.512L22.704 21.432C21.92 22.344 20.96 23.04 19.824 23.52C18.688 24 17.424 24.24 16.032 24.24Z" fill="black"/>
</svg>
