<svg width="718" height="466" viewBox="0 0 718 466" fill="none" xmlns="http://www.w3.org/2000/svg">
<path d="M6.48185 466L246.472 464.741L310.443 464.724H331.635L395.728 464.704L688.54 464.622C688.54 464.622 755.528 377.916 683.975 295.54C609.8 210.149 573.731 279.691 550.931 159.494C493.541 -143.062 -73.8799 33.0333 74.951 290.496C128.54 383.19 -30.5365 333.927 6.48185 466Z" fill="#EBF3FA"/>
<path d="M284.104 451.423C284.104 451.423 285.013 461.974 282.786 463.07L254.253 463.002C254.253 463.002 254.253 459.706 258.834 458.976C263.416 458.246 271.471 455.559 272.831 449.58C274.191 443.601 284.095 451.411 284.095 451.411" fill="#233862"/>
<path d="M365.955 447.337C365.955 447.337 366.8 461.974 364.587 463.07L336.053 463.014C336.053 463.014 336.053 459.717 340.635 458.987C345.217 458.258 353.268 455.57 354.631 449.591C355.995 443.613 365.955 447.337 365.955 447.337Z" fill="#233862"/>
<path d="M366.93 449.138C366.93 449.138 361.264 452.057 358.842 452.589C356.147 453.184 351.086 452.806 351.086 452.806C341.382 426.779 311.285 320.975 311.285 320.975C309.979 350.232 304.701 379.409 299.218 402.864C299.072 403.49 298.923 404.115 298.776 404.735C298.644 405.298 298.509 405.862 298.376 406.425C298.369 406.45 298.363 406.476 298.359 406.501C291.702 434.177 285.028 453.029 285.028 453.029C285.028 453.029 283.304 455.209 278.505 454.212C273.008 453.085 271.183 450.651 271.183 450.651C274.743 337.917 276.728 274.347 276.728 274.347C276.728 274.347 324.364 248.601 337.304 270.608C350.244 292.615 366.941 449.143 366.941 449.143" fill="#2A4E96"/>
<path d="M347.749 285.803C341.573 263.714 340.557 242.744 340.604 225.38C340.669 200.665 342.888 183.259 335.456 180.323C335.456 180.323 312.485 173.643 296.675 170.702C294.265 169.336 291.783 168.101 289.241 167C284.25 164.974 264.788 136.67 261.49 129.894C258.192 123.118 252.729 93.5914 252.729 93.5914L245.145 96.0115C245.145 96.0115 242.867 129.15 243.96 137.788C245.052 146.427 269.147 183.569 271.147 186.812C279.725 218.181 271.147 269.233 275.067 280.616C277.083 286.47 314.493 297.199 334.958 295.85C335.975 295.782 336.957 295.686 337.884 295.568C342.725 294.894 346.248 293.348 347.541 290.632C348.171 289.31 348.27 287.716 347.738 285.808" fill="#AEC3FF"/>
<path d="M252.715 93.594C252.715 93.594 256.998 81.1353 253.864 80.7747C250.73 80.414 242.864 80.4507 241.895 82.5553C240.927 84.6599 245.131 96.0114 245.131 96.0114L252.715 93.594Z" fill="#5B3C11"/>
<path d="M171.128 124.628L145.831 109.324C146.365 108.44 147.068 107.671 147.899 107.059C148.731 106.447 149.674 106.006 150.676 105.759C151.679 105.512 152.719 105.465 153.74 105.621C154.76 105.777 155.739 106.132 156.622 106.667C157.409 107.141 158.351 107.284 159.242 107.064C160.134 106.844 160.901 106.278 161.376 105.492L168.222 94.166L174.136 97.7498L167.29 109.076C166.816 109.863 166.673 110.805 166.893 111.697C167.112 112.589 167.676 113.358 168.461 113.835C169.345 114.368 170.116 115.07 170.728 115.901C171.341 116.732 171.783 117.676 172.031 118.678C172.279 119.681 172.326 120.722 172.171 121.743C172.017 122.764 171.662 123.744 171.128 124.628Z" fill="#ED7D2B"/>
<path d="M171.128 124.628L154.313 114.454C150.418 111.2 152.322 108.417 154.274 107.935C155.276 107.688 156.318 107.642 157.339 107.8C158.359 107.957 159.339 108.314 160.221 108.851C160.611 109.086 161.044 109.243 161.494 109.311C161.944 109.38 162.404 109.359 162.846 109.249C163.288 109.139 163.704 108.943 164.071 108.672C164.437 108.401 164.746 108.061 164.981 107.67L171.827 96.3439L174.15 97.7527L167.304 109.079C166.83 109.866 166.687 110.808 166.907 111.7C167.126 112.592 167.691 113.361 168.475 113.837C170.258 114.916 171.538 116.659 172.036 118.683C172.533 120.707 172.207 122.845 171.128 124.628Z" fill="#F99746"/>
<path d="M245.128 50.848L224.655 76.667C217.539 88.4382 205.224 94.0872 193.441 94.5605C189.518 94.7318 185.591 94.3005 181.799 93.2814C178.766 92.4559 175.274 94.0872 173.35 97.2596L172.95 97.9217L170.762 101.525L166.451 98.9191L168.642 95.279C170.745 91.7882 170.63 87.5338 168.324 84.9531C158.481 73.9144 154.783 55.6827 164.206 40.1051L178.07 10.2769L245.128 50.848Z" fill="#F99746"/>
<path d="M159.492 61.047C161.165 51.3748 156.487 46.1146 151.536 40.522C147.594 36.062 143.485 31.447 142.604 24.5809C141.629 16.9739 145.172 9.18928 151.424 5.23642C156.177 2.23022 161.43 2.13724 165.842 4.95468C172.106 8.98079 174.432 16.771 172.573 27.4942C171.667 32.4604 170.178 37.3024 168.138 41.9194L164.195 40.0966C164.305 39.8571 175.125 16.092 163.488 8.61453C159.475 6.03094 155.651 7.68759 153.727 8.89627C148.94 11.9194 146.124 18.1403 146.89 24.0231C147.602 29.565 151.08 33.4869 154.775 37.6398C159.937 43.4578 165.786 50.0365 163.759 61.7796L159.492 61.047Z" fill="#ED7D2B"/>
<path d="M208.299 90.5766C216.083 84.6008 222.92 86.2969 230.161 88.0916C235.948 89.5257 241.932 91.0104 248.42 88.6015C255.616 85.9278 260.851 79.1772 261.448 71.804C261.901 66.1945 259.547 61.4978 254.993 58.9029C248.516 55.2234 240.544 56.7786 231.923 63.4108C227.952 66.522 224.36 70.0899 221.222 74.041L224.661 76.6781C224.821 76.4668 240.834 55.846 252.859 62.6811C257.007 65.0393 257.317 69.1979 257.134 71.4659C256.68 77.1008 252.479 82.4849 246.919 84.5472C241.684 86.4913 236.595 85.2319 231.208 83.8964C223.661 82.0228 215.108 79.9041 205.666 87.1477L208.299 90.5766Z" fill="#F99746"/>
<path d="M193.424 94.5577C189.501 94.729 185.574 94.2976 181.782 93.2786C178.749 92.4531 175.257 94.0844 173.333 97.2568L172.934 97.9189C171.427 98.6965 170.289 99.6798 169.748 100.925L166.437 98.9219L168.642 95.279C170.745 91.7882 170.63 87.5338 168.324 84.9531C158.481 73.9143 154.783 55.6827 164.206 40.1051L178.07 10.2769L189.155 16.9824C189.155 16.9824 144.141 77.9996 193.424 94.5577Z" fill="#ED7D2B"/>
<path d="M173.483 104.154L162.446 97.4709C162.088 97.2545 161.776 96.9696 161.528 96.6326C161.28 96.2956 161.101 95.913 161.001 95.5067C160.901 95.1004 160.882 94.6783 160.945 94.2646C161.007 93.8509 161.151 93.4536 161.367 93.0954C161.584 92.7373 161.869 92.4253 162.205 92.1772C162.542 91.9292 162.925 91.7499 163.331 91.6497C163.737 91.5495 164.159 91.5303 164.572 91.5932C164.986 91.6561 165.383 91.7999 165.741 92.0164L176.78 98.7078C177.138 98.9244 177.45 99.2095 177.698 99.5466C177.946 99.8838 178.125 100.267 178.225 100.673C178.325 101.079 178.344 101.502 178.281 101.915C178.218 102.329 178.074 102.727 177.857 103.085C177.641 103.443 177.356 103.755 177.019 104.003C176.682 104.251 176.299 104.43 175.893 104.53C175.487 104.63 175.065 104.649 174.651 104.586C174.238 104.523 173.841 104.379 173.483 104.162" fill="#F99746"/>
<path d="M241.895 82.5554C241.895 82.5554 241.49 86.8436 242.867 87.6522C244.244 88.4608 244.726 82.5554 244.726 82.5554C244.726 82.5554 244.807 87.3986 245.852 87.7283C246.897 88.0579 247.542 82.1497 247.542 82.1497C247.542 82.1497 247.654 86.8436 248.367 86.6802C249.079 86.5168 249.564 82.1497 249.564 82.1497C249.564 82.1497 249.888 85.556 250.859 84.9446C251.831 84.3332 252.752 80.6762 252.752 80.6762L241.895 82.5554Z" fill="#5B3C11"/>
<path d="M252.715 93.5941C252.715 93.5941 255.644 91.2922 256.292 89.1876C256.939 87.083 258.826 83.5527 257.826 83.1217C256.827 82.6906 253.864 87.2464 253.864 87.2464L252.715 93.5941Z" fill="#5B3C11"/>
<path d="M303.513 167.312L303.144 169.228C303.144 169.228 301.454 175.114 308.635 177.444C315.817 179.774 321.899 180.861 322.612 176.201C322.657 172.491 322.564 166.704 323.099 163.734C323.321 162.531 323.646 161.349 324.071 160.201L309.846 157.102L305.507 156.944L303.513 167.312Z" fill="#5B3C11"/>
<path d="M305.506 156.944L304.183 163.931C317.7 167.512 323.614 161.477 324.073 160.201L309.849 157.102L305.506 156.944Z" fill="black"/>
<path d="M326.155 157.31C321.964 165.83 310.452 162.28 305.597 160.308C304.228 159.745 303.392 159.328 303.392 159.328C301.922 158.454 301.739 155.702 302.245 152.301C303.251 145.576 306.957 136.332 308.723 134.202C311.404 130.996 315.628 127.899 326.501 134.041C337.374 140.183 331.514 146.39 326.138 157.31" fill="#5B3C11"/>
<path d="M309.286 154.161C309.286 154.161 308.585 155.214 305.78 153.969C305.78 153.969 303.423 152.924 303.966 151.684C303.966 151.684 306.642 151.647 309.286 154.161Z" fill="white"/>
<path d="M306.126 182.969C306.126 182.969 299.649 226.039 251.116 255.941L246.587 269.101H264.109C264.109 269.101 307.571 232.638 310.486 184.2L306.126 182.969Z" fill="#ED7D2B"/>
<path d="M306.129 182.969V176.438L314.127 178.703L310.477 184.206L306.129 182.969Z" fill="#DB6516"/>
<path d="M303.513 167.312L298.83 171.313C298.83 171.313 297.537 176.906 300.691 182.969L310.125 177.574C310.125 177.574 304.555 174.88 303.513 167.312Z" fill="#9DB0F4"/>
<path d="M310.125 177.573C310.125 177.573 311.063 182.645 313.505 185.15C313.505 185.15 324.136 183.29 327.084 178.19L322.632 171.234C322.632 171.234 321.57 175.982 310.111 177.573" fill="#9DB0F4"/>
<path d="M373.81 289.206C373.81 289.206 373.829 298.85 372.942 300.757C372.055 302.665 368.079 308.928 366.245 310.258C364.412 311.588 366.64 302.535 366.065 300.878C365.491 299.222 364.784 304.147 363.933 304.35C363.083 304.552 362.855 300.211 362.658 298.641C362.461 297.072 366.274 292.753 367.409 289.251C368.543 285.749 373.81 289.197 373.81 289.197" fill="#5B3C11"/>
<path d="M335.29 180.323C335.29 180.323 344.637 182.859 350.97 196.814C357.611 211.433 375.387 243.913 376.034 248.393C376.682 252.872 374.857 294.737 374.857 294.737C374.857 294.737 367.079 295.038 364.677 291.356C364.677 291.356 361.97 254.605 360.771 252.61C359.571 250.615 328.948 214.09 331.542 204.821C334.136 195.551 335.279 180.332 335.279 180.332" fill="#AEC3FF"/>
<path d="M347.538 290.626C345.22 292.598 342.091 294.345 337.881 295.562C336.933 295.843 335.939 295.939 334.955 295.844C317.847 294.077 320.477 227.589 328.76 222.675C337.49 217.497 340.587 225.363 340.587 225.363C340.539 242.727 341.556 263.697 347.732 285.786C348.264 287.693 348.166 289.288 347.535 290.609" fill="#9DB0F4"/>
<path d="M298.376 406.42C298.489 405.901 298.622 405.338 298.776 404.729C298.643 405.293 298.508 405.856 298.376 406.42Z" fill="#233862"/>
<path d="M299.218 402.864C304.451 378.071 298.81 311.664 301.33 310.402C303.918 309.105 311.285 320.975 311.285 320.975C309.979 350.232 304.701 379.409 299.218 402.864Z" fill="#233862"/>
<path d="M171.232 453.482L169.723 442.612L176.059 437.313L178.056 451.707L171.232 453.482Z" fill="#5B3C11"/>
<path d="M192.275 463.194H166.44C166.44 463.194 165.82 459.249 167.169 456.266C168.462 453.398 170.475 451.628 170.658 449.431C172.3 451.121 174.319 452.211 178.056 451.707C178.512 452.451 181.01 456.424 182.539 457.522C184.229 458.734 191.757 458.303 192.275 463.194Z" fill="#233862"/>
<path d="M187.085 306.685C185.395 320.285 184.012 333.104 182.889 345.053C176.873 408.727 178.056 447.63 178.056 447.63C178.056 447.63 177.62 448.783 173.891 448.8C172.489 448.787 171.092 448.636 169.72 448.349C169.72 448.349 156.259 406.777 157.298 383.119C157.374 380.537 157.726 377.969 158.349 375.462C161.579 363.347 146.397 317.067 162.899 299.828C179.402 282.588 187.862 300.445 187.085 306.685Z" fill="#F99746"/>
<path d="M187.085 306.685C185.395 320.285 184.012 333.104 182.889 345.053L157.298 383.119C157.374 380.537 157.726 377.969 158.349 375.462C161.579 363.347 146.397 317.067 162.899 299.828C179.402 282.588 187.862 300.445 187.085 306.685Z" fill="#ED7D2B"/>
<path d="M207.42 176.976C207.42 176.976 206.798 173.877 206.096 171.499C205.784 170.451 207.947 163.56 209.445 162.711C210.943 161.863 214.841 166.504 213.737 170.068C213.173 171.896 212.239 177.852 212.239 177.852L207.42 176.976Z" fill="#5B3C11"/>
<path d="M207.42 176.976C207.42 176.976 206.606 175.176 205.871 174.883C205.136 174.59 204.348 171.646 203.81 170.479C203.81 170.479 204.331 169.713 205.24 170.696C205.804 171.296 207.037 173.054 207.037 173.054L207.42 176.976Z" fill="#5B3C11"/>
<path d="M100.772 187.426C100.612 187.756 100.392 188.339 100.209 188.888C100.209 188.739 100.209 188.59 100.209 188.443C100.209 187.35 96.1144 181.399 94.436 181.022C92.7576 180.644 90.3864 186.229 92.4844 189.314C93.5602 190.897 96.1933 196.321 96.1933 196.321L100.544 194.067C100.544 194.067 100.798 192.094 101.414 191.613C102.031 191.131 101.921 188.071 102.096 186.795C102.096 186.795 101.375 186.231 100.792 187.423" fill="#5B3C11"/>
<path d="M127.9 450.225C127.534 446.74 127.444 437.572 127.444 437.572C127.444 437.572 136.78 434.586 136.436 436.637C134.746 446.718 135.206 451.707 135.206 451.707L131.429 453.961L127.9 450.225Z" fill="#5B3C11"/>
<path d="M179.287 306.037C179.287 306.037 143.215 404.963 136.115 447.867C136.115 447.867 134.47 448.994 131.401 448.625C127.92 448.2 126.968 445.779 126.968 445.779C126.968 445.779 120.452 394.353 133.403 376.507C142.302 364.243 129.565 310.368 150.3 306.049C171.035 301.73 179.306 306.049 179.306 306.049" fill="#F99746"/>
<path d="M172.88 210.881C172.872 210.838 172.862 210.796 172.849 210.754C172.638 209.884 172.41 209.027 172.159 208.176C171.447 205.699 170.572 203.271 169.537 200.91C168.974 199.657 168.411 198.496 167.811 197.459C167.721 197.301 167.631 197.152 167.546 197C166.138 194.656 164.73 193.033 163.426 192.534C161.066 191.621 158.444 191.875 156.636 192.252C157.034 191.689 157.932 191.385 157.932 191.385C156.777 191.385 154.423 192.881 154.423 192.881C137.808 189.147 138.79 212.665 139.917 217.992C141.043 223.32 135.693 225.912 128.151 231.364C113.755 241.769 113.997 252.796 113.997 252.796C114.127 252.853 114.279 252.915 114.417 252.988C114.994 251.562 116.225 248.86 117.514 248.291C117.478 248.418 116.43 251.917 116.132 253.875C118.325 255.084 121.361 256.958 124.656 259.068C129.066 261.885 133.933 265.139 137.833 267.776C137.647 266.703 137.464 265.173 137.737 264.308L138.979 268.157L139.142 268.661C141.629 270.352 143.595 271.698 144.592 272.389C144.693 272.459 144.783 272.524 144.873 272.577L145.321 272.885C144.989 271.524 146.448 267.977 148.881 263.505C149.047 263.193 149.224 262.874 149.405 262.553C150.19 261.144 151.072 259.651 152.015 258.115C152.356 257.552 152.702 257.005 153.06 256.439C153.342 255.983 153.623 255.532 153.933 255.07C154.64 253.977 155.372 252.878 156.115 251.776C158.047 248.922 160.092 246.088 162.114 243.49C165.045 239.706 167.926 236.418 170.337 234.266C170.416 234.102 170.489 233.936 170.557 233.77C170.939 232.851 171.237 231.9 171.447 230.927C171.517 230.629 171.579 230.33 171.635 230.028C172.049 227.704 172.251 225.346 172.238 222.985C172.421 225.35 172.392 227.727 172.151 230.088C172.106 230.471 172.055 230.826 171.996 231.153C171.892 231.784 171.747 232.408 171.562 233.021C171.963 232.518 172.314 231.977 172.61 231.406C172.814 231.014 172.996 230.611 173.153 230.198C175.099 225.233 174.561 217.826 172.891 210.878" fill="black"/>
<path d="M169.768 234.7C169.822 234.714 165.116 238.123 161.122 237.644C157.368 237.199 154.313 232.854 154.364 232.854C155.848 232.325 155.977 230.158 154.6 221.134L155.313 221.165L167.273 221.728C167.273 221.728 167.555 225.425 168.056 228.871C168.478 231.767 169.061 234.483 169.771 234.694" fill="#5B3C11"/>
<path d="M167.262 221.734C167.262 221.734 167.543 225.43 168.045 228.876C161.517 229.662 157.2 224.239 155.302 221.159L167.262 221.734Z" fill="black"/>
<path d="M153.913 220.075C153.913 220.075 149.706 215.195 148.205 210.712C147.132 207.512 146.994 195.075 159.495 195.011C162.01 194.985 164.499 195.525 166.777 196.591C169.703 198 174.116 201.296 171.407 212.569L170.827 216.327L153.913 220.075Z" fill="black"/>
<path d="M188.591 304.138C188.591 304.138 173.029 313.391 153.488 308.646C153.26 308.59 137.399 306.057 137.399 306.057C137.681 305.31 139.723 293.055 139.99 292.37C143.457 283.419 149.793 234.846 155.085 232.449C156.436 233.922 160.3 234.931 163.606 234.638C167.414 234.3 168.675 232.666 168.371 230.885C172.596 232.877 175.82 234.731 175.82 234.731C179.673 240.501 188.591 304.15 188.591 304.15" fill="white"/>
<path d="M169.917 224.672C169.917 224.672 154.572 227.208 153.139 217.629C151.705 208.05 148.754 201.919 158.489 199.879C168.225 197.839 170.681 201.22 171.939 204.302C173.198 207.385 173.871 223.743 169.917 224.658" fill="#5B3C11"/>
<path d="M165.462 198.617C165.462 198.617 162.928 210.487 156.707 213.113C150.486 215.738 147.43 214.423 147.43 214.423C147.43 214.423 151.801 209.743 151.807 202.713C151.807 202.713 161.489 193.737 165.462 198.617Z" fill="black"/>
<path d="M164.553 199.685C164.553 199.685 168.079 201.727 169.205 204.055C170.331 206.382 171.424 211.355 172.866 210.966C172.866 210.966 174.902 202.849 170.695 199.056C166.231 195.033 164.558 199.685 164.558 199.685" fill="black"/>
<path d="M212.343 177.199C211.72 176.979 210.799 176.458 209.6 176.353C208.788 176.322 207.977 176.407 207.189 176.604C207.189 176.604 202.861 203.516 202.54 204.95C202.219 206.385 183.973 226.926 179.053 226.856C174.612 226.783 169.348 230.214 168.371 230.874C168.371 230.874 178.715 252.757 179.233 256.87C179.796 261.341 185.147 330.228 185.147 330.228C185.147 330.228 184.829 333.431 190.813 331.71C196.797 329.988 198.293 328.56 198.293 328.56C198.293 328.56 192.796 274.33 191.644 257.465C191.507 255.338 191.16 253.231 190.608 251.173C190.363 250.25 190.329 249.284 190.507 248.346C190.684 247.408 191.07 246.522 191.635 245.753C199.202 235.362 211.151 218.525 211.819 214.947C212.796 209.689 212.354 177.193 212.354 177.193" fill="#2B478B"/>
<path d="M149.427 463.194H123.583C123.583 463.194 122.964 459.249 124.316 456.266C125.608 453.398 127.619 451.628 127.802 449.431C129.444 451.121 131.463 452.211 135.2 451.707C135.659 452.451 138.154 456.424 139.683 457.522C141.373 458.734 148.901 458.303 149.422 463.194" fill="#233862"/>
<path d="M167.175 258.995C166.304 253.641 155.186 232.108 155.186 232.108C155.186 232.108 148.146 230.006 143.533 231.682C138.92 233.359 114.974 219.849 114.208 218.595C113.442 217.342 100.62 193.453 100.62 193.453C100.62 193.453 99.5587 192.838 97.855 193.734C97.3723 193.982 96.9625 194.351 96.6661 194.806C96.3698 195.26 96.1972 195.784 96.1653 196.326C96.1653 196.326 106.058 226.417 108.692 231.071C110.277 233.888 123.617 243.648 133.966 250.968C134.937 251.651 135.701 252.589 136.176 253.677C136.65 254.766 136.816 255.964 136.656 257.141C135.265 267.43 134.913 273.223 133.31 290.879C131.984 305.53 131.477 333.879 131.477 333.879C131.477 333.879 143.054 337.888 151.044 338.421C159.033 338.953 160.776 330.532 160.776 330.532C160.776 330.532 168.079 264.505 167.175 258.995Z" fill="#2B478B"/>
<path d="M164.888 219.934C166.132 220.603 167.552 220.872 168.954 220.703C170.461 220.475 170.804 218.686 170.804 218.686C170.804 218.686 169.757 218.356 168.084 218.686C166.963 218.941 165.886 219.361 164.888 219.931" fill="white"/>
<path d="M463.774 217.925C463.774 217.925 468.539 225.783 459.578 230.733C459.578 230.733 466.467 233.215 468.872 232.28C468.56 232.605 468.208 232.889 467.824 233.125C467.824 233.125 474.301 235.182 477.526 234.057C480.75 232.933 487.7 201.578 468.593 199.921C468.593 199.921 453.521 194.523 450.336 211.352C447.151 228.18 441.344 226.543 441.344 226.543C441.344 226.543 442.752 227.732 443.529 227.952C443.529 227.952 444.782 227.873 445.171 227.355C445.171 227.355 444.689 228.2 444.326 228.411C444.326 228.411 450.437 230.724 454.183 229.42C457.928 228.115 463.732 221.565 463.794 217.925" fill="black"/>
<path d="M444.582 465.487H468.959C468.959 465.487 469.545 461.768 468.272 458.951C467.05 456.243 465.151 454.573 464.98 452.499C463.431 454.096 461.524 455.122 457.998 454.649C457.568 455.347 455.213 459.097 453.774 460.134C452.183 461.278 445.078 460.869 444.588 465.487" fill="#233862"/>
<path d="M464.726 456.173C463.341 456.6 461.918 456.89 460.477 457.038C456.635 457.382 456.075 456.238 456.075 456.238C456.075 456.238 452.259 422.254 439.91 357.298C438.128 347.916 437.424 342.723 436.782 334.384C436.587 331.887 436.401 329.112 436.193 325.852C435.63 317.099 436.962 302.363 443.515 298.492C446.5 296.729 450.555 297.213 456.038 301.521C456.466 301.862 456.909 302.225 457.356 302.614C473.363 316.465 466.802 356.244 467.447 374.946C467.556 378.045 467.863 380.581 468.5 382.294C469.325 384.528 471.099 387.625 471.502 390.544C474.862 414.799 464.712 456.173 464.712 456.173" fill="#2B478B"/>
<path d="M467.461 374.946L436.782 334.375C436.587 331.879 436.401 329.104 436.193 325.844C435.63 317.09 436.962 302.355 443.515 298.484L456.038 301.513C456.466 301.853 456.909 302.217 457.356 302.606C473.363 316.456 466.802 356.236 467.447 374.938" fill="#233862"/>
<path d="M554.173 414.159L544.035 391.983C544.035 391.983 540.413 393 538.383 395.333C536.428 397.567 535.003 397.17 530.571 394.085C532.243 396.669 532.472 398.193 533.505 401.596C534.322 401.698 538.971 406.197 543.731 407.437C545.631 407.933 549.782 415.636 554.181 414.159" fill="#233862"/>
<path d="M447.812 308.224C447.812 308.224 469.655 384.196 477.664 389.084C485.673 393.972 527.749 400.7 536.304 404.369C536.304 404.369 537.344 402.873 536.732 399.68C536.597 398.973 535.392 396.421 535.392 396.421C535.392 396.421 509.258 376.766 492.06 374.783C487.791 374.293 500.75 309.077 471.905 306.474C445.557 304.096 447.818 308.221 447.818 308.221" fill="#2B478B"/>
<path d="M416.646 183.58C416.646 183.58 417.235 180.65 417.896 178.413C418.178 177.424 416.148 170.921 414.737 170.121C413.326 169.321 409.645 173.699 410.687 177.061C411.222 178.788 412.095 184.409 412.095 184.409L416.646 183.58Z" fill="#5B3C11"/>
<path d="M416.646 183.58C416.646 183.58 417.415 181.89 418.108 181.608C418.8 181.326 419.544 178.554 420.054 177.452C420.054 177.452 419.561 176.731 418.702 177.658C418.178 178.221 417.012 179.884 417.012 179.884L416.646 183.58Z" fill="#5B3C11"/>
<path d="M517.281 193.441C517.43 193.751 517.639 194.287 517.825 194.819C517.825 194.678 517.825 194.537 517.825 194.402C517.825 193.368 521.689 187.75 523.271 187.398C524.854 187.046 527.093 192.309 525.113 195.219C524.096 196.715 521.612 201.832 521.612 201.832L517.507 199.71C517.507 199.71 517.27 197.859 516.687 197.391C516.104 196.924 516.208 194.05 516.045 192.85C516.045 192.85 516.724 192.303 517.276 193.441" fill="#5B3C11"/>
<path d="M452.18 238.041C452.127 238.055 456.568 241.273 460.347 240.822C463.89 240.399 466.771 236.314 466.726 236.297C465.318 235.796 465.205 233.761 466.501 225.236L465.83 225.267L454.546 225.808C454.546 225.808 454.284 229.296 453.808 232.547C453.408 235.28 452.859 237.844 452.192 238.041" fill="#5B3C11"/>
<path d="M454.535 225.808C454.535 225.808 454.273 229.296 453.797 232.547C459.956 233.288 464.031 228.172 465.819 225.267L454.535 225.808Z" fill="black"/>
<path d="M467.128 224.241C467.128 224.241 471.099 219.641 472.516 215.409C473.53 212.391 473.659 200.657 461.865 200.595C459.491 200.571 457.142 201.081 454.991 202.088C452.231 203.409 448.069 206.528 450.623 217.164L451.169 220.708L467.128 224.241Z" fill="black"/>
<path d="M438.026 305.299C438.026 305.299 449.094 312.286 467.528 307.798C467.745 307.745 478.01 306.108 478.01 306.108C477.754 305.403 466.968 287.572 466.714 286.927C463.445 278.474 471.018 238.168 466.024 235.908C464.749 237.297 461.105 238.25 457.984 237.971C454.394 237.655 453.197 236.103 453.479 234.432C449.505 236.311 446.438 238.061 446.438 238.061C442.805 243.507 438.007 305.299 438.007 305.299" fill="#5B3C11"/>
<path d="M452.031 228.592C452.031 228.592 466.506 230.992 467.861 221.951C469.215 212.91 471.995 207.128 462.811 205.213C453.628 203.297 451.307 206.48 450.122 209.388C448.936 212.296 448.3 227.735 452.031 228.592Z" fill="#5B3C11"/>
<path d="M456.233 203.998C456.233 203.998 458.629 215.198 464.495 217.674C470.361 220.151 473.248 218.911 473.248 218.911C473.248 218.911 469.125 214.504 469.125 207.864C469.125 207.864 459.989 199.395 456.241 203.998" fill="black"/>
<path d="M457.092 205.004C457.092 205.004 453.771 206.931 452.707 209.129C451.642 211.326 450.609 216.014 449.251 215.648C449.251 215.648 447.331 207.99 451.302 204.412C455.526 200.617 457.092 205.004 457.092 205.004Z" fill="#163560"/>
<path d="M520.675 201.826C520.675 201.826 511.339 230.212 508.847 234.604C507.352 237.252 490.542 247.728 480.773 254.63C480.623 254.757 480.496 254.908 480.398 255.078V255.092C477.962 258.862 470.392 282.19 472.2 286.366C479.804 303.964 485.031 310.771 486.929 315.707C487.154 316.292 487.259 316.916 487.238 317.543C487.218 318.169 487.072 318.785 486.809 319.354C486.547 319.923 486.173 320.434 485.71 320.856C485.247 321.278 484.704 321.603 484.113 321.812C479.827 323.334 475.42 324.487 470.939 325.261C469.902 325.448 468.837 325.608 467.742 325.74C452.741 327.644 442.583 324.122 437.427 321.513C436.233 320.91 435.242 319.972 434.574 318.813C433.907 317.655 433.591 316.326 433.667 314.991C433.977 309.424 436.765 303.916 438.015 290.524C438.967 280.368 430.206 264.906 430.575 259.499C430.721 257.36 432.403 254.802 433.312 253.143C434.923 250.21 435.807 247.559 434.72 246.085C427.581 236.283 412.166 222.765 411.535 219.39C410.614 214.428 411.031 183.772 411.031 183.772C411.619 183.566 412.487 183.073 413.619 182.974C414.384 182.945 415.149 183.025 415.891 183.211C415.891 183.211 419.978 208.61 420.282 209.957C420.586 211.304 437.798 230.705 442.439 230.626C446.63 230.555 452.538 233.793 453.459 234.415C450.939 239.307 449.345 244.623 448.759 250.094C448.105 256.394 452.313 253.594 454.954 249.277C458.531 243.437 465.729 235.12 465.729 235.12C465.729 235.12 471.589 233.595 475.952 235.179C480.314 236.762 502.899 224.005 503.62 222.83C504.341 221.655 516.439 199.11 516.439 199.11C516.439 199.11 517.442 198.53 519.05 199.366C519.506 199.6 519.893 199.949 520.173 200.378C520.453 200.808 520.616 201.303 520.647 201.815" fill="#F99746"/>
<path d="M456.233 223.672C456.233 223.672 455.613 224.92 454.782 224.943C453.952 224.965 451.834 224.765 451.685 224.551C451.485 224.056 451.319 223.548 451.189 223.03C451.189 223.03 454.687 222.889 456.227 223.672" fill="white"/>
<path d="M484.124 321.829C479.838 323.35 475.431 324.504 470.95 325.278C465.774 318.138 457.013 309.153 459.268 292.632C461.597 275.553 478.382 257.577 480.39 255.098C477.954 258.868 470.384 282.196 472.192 286.372C479.795 303.969 485.022 310.776 486.92 315.712C487.145 316.297 487.25 316.922 487.23 317.548C487.209 318.175 487.063 318.791 486.801 319.36C486.538 319.929 486.164 320.44 485.701 320.862C485.238 321.284 484.695 321.609 484.104 321.818" fill="#ED7D2B"/>
<path d="M433.326 253.16C434.937 250.227 435.821 247.576 434.734 246.102C427.595 236.3 412.18 222.782 411.549 219.407C413.078 223.07 431.746 234.032 436.998 238.746C442.189 243.397 433.523 252.932 433.312 253.16" fill="#ED7D2B"/>
<path d="M119.962 117.973C119.962 117.973 123.459 122.763 123.085 128.237C122.803 132.297 119.19 136.408 118.948 136.566L124.656 139.611C124.656 139.611 128.88 132.092 127.472 125.806C127.036 123.879 125.011 120.799 123.53 119.427C122.56 118.529 121.299 118.011 119.978 117.968" fill="#6BB7BF"/>
<path d="M108.292 118.481L104.676 110.487C104.676 110.487 121.547 111.051 127.137 124.811C127.137 124.811 115.332 116.387 108.292 118.481Z" fill="#86D1CD"/>
<path d="M44.5648 321.888C44.5648 321.888 40.5433 318.848 39.4957 314.309C38.7269 310.928 40.6588 306.702 40.8165 306.522L35.4376 305.448C35.4376 305.448 33.8437 312.602 36.5444 317.361C37.3723 318.817 39.7745 320.823 41.3318 321.587C42.3407 322.08 43.4939 322.192 44.5788 321.902" fill="#6BB7BF"/>
<path d="M53.9257 318.606L58.8286 324.218C58.8286 324.218 44.9731 327.901 37.0513 318.093C37.0513 318.093 48.7186 322.037 53.9257 318.606Z" fill="#86D1CD"/>
<path d="M661.232 348.017C661.232 348.017 660.88 342.743 670.77 340.193C675.206 339.049 685.076 341.083 678.819 350.801C672.308 360.907 666.504 357.258 666.504 357.258C666.504 357.258 680.083 346.625 674.648 341.762C668.652 336.409 666.349 347.028 666.349 347.028C664.594 347.01 662.854 347.346 661.232 348.014" fill="#F1A34F"/>
<path d="M664.741 357.867C664.741 357.867 661.04 355.864 662.507 351.415L667.824 352.339C667.824 352.339 665.78 357.154 670.781 357.737C670.781 357.737 665.968 358.881 664.741 357.867Z" fill="#DB7714"/>
<path d="M317.813 75.1004C317.813 75.1004 323.341 67.1355 331.818 72.776L336.98 67.8371C336.98 67.8371 332.159 64.1744 321.032 70.7419C313.752 75.0413 317.813 75.1004 317.813 75.1004Z" fill="#5685D8"/>
<path d="M312.358 82.9076C312.358 82.9076 311.266 73.765 326.56 68.0625C326.56 68.0625 321.032 70.7419 319.325 79.8563L312.358 82.9076Z" fill="#739AF0"/>
<path d="M373.81 34.4223C373.81 34.4223 378.315 31.5654 378.805 28.114C378.805 28.114 383.207 28.3535 384.156 29.7819C384.156 29.7819 382.134 35.4929 379.754 36.5635C379.754 36.5635 374.404 36.9213 373.807 34.4223" fill="#F99746"/>
<path d="M228.344 360.298C228.344 360.298 223.52 357.25 223.013 353.57C223.013 353.57 218.319 353.824 217.302 355.348C217.302 355.348 219.459 361.439 221.999 362.583C221.999 362.583 227.708 362.964 228.344 360.298Z" fill="#F99746"/>
<path d="M426.28 124.406C426.28 124.406 431.124 121.346 431.631 117.644C431.631 117.644 436.348 117.897 437.367 119.427C437.367 119.427 435.199 125.549 432.65 126.696C432.65 126.696 426.914 127.079 426.277 124.4" fill="#86D1CD"/>
<path d="M520.542 264.711C520.542 264.711 517.74 261.31 516.237 260.834C514.733 260.358 511.815 258.101 511.449 259.031C511.083 259.961 513.42 261.395 513.285 262.457C513.15 263.519 505.851 265.227 505.896 266.351C505.941 267.475 507.613 270.194 510.401 269.881C513.189 269.568 520.258 267.892 521.714 268.616C523.17 269.34 520.554 264.711 520.554 264.711" fill="#5B3C11"/>
<path d="M595.951 248.176C592.061 253.36 587.357 257.878 582.022 261.556C566.234 272.544 549.112 274.178 549.112 274.178C545.009 272.865 532.401 271.493 524.952 270.29C521.705 269.768 519.438 269.278 519.286 268.841L519.472 262.361C519.472 262.361 546.814 260.913 551.343 258.814C558.482 252.661 564.79 244.671 568.899 238.427C572.371 233.156 576.257 229.262 582.664 226.977C591.926 223.672 608.772 230.953 595.953 248.181" fill="#AEC3FF"/>
<path d="M583.416 257.476L582.008 261.561C566.22 272.549 549.098 274.183 549.098 274.183C545.8 274.183 532.387 271.498 524.938 270.295C525.22 270.321 545.215 271.884 549.639 271.422C554.063 270.96 574.807 252.999 574.807 252.999L583.416 257.476Z" fill="#9DB0F4"/>
<path d="M565.564 463.194H595.782C597.947 461.726 595.199 447.366 595.199 447.366C595.199 447.366 586.95 444.235 585.525 450.603C584.1 456.97 575.021 458.987 570.219 459.762C566.933 460.298 565.894 462.104 565.564 463.194Z" fill="#233862"/>
<path d="M610.378 463.194H640.595C642.758 461.726 640.009 447.366 640.009 447.366C640.009 447.366 631.764 444.235 630.339 450.603C628.914 456.97 619.834 458.987 615.033 459.762C611.746 460.298 610.707 462.104 610.378 463.194Z" fill="#233862"/>
<path d="M573.695 316.696C573.695 316.696 575.052 333.648 576.649 354.027C578.82 381.708 584.672 450.341 584.672 450.341C584.672 450.341 588.508 453.615 597.004 451.823C597.004 451.823 604.239 428.156 606.401 401.109C606.435 400.666 606.469 400.219 606.5 399.773C608.513 372.264 611.642 314.335 611.642 314.335L573.695 316.696Z" fill="#2B478B"/>
<path d="M573.233 310.838C573.233 310.838 575.052 333.659 576.649 354.027L606.401 401.123C606.435 400.681 606.469 400.233 606.5 399.787C608.513 372.278 611.642 314.349 611.642 314.349L573.233 310.838Z" fill="#233862"/>
<path d="M581.904 310.838C581.904 310.838 603.481 364.575 610.378 384.937C615.292 399.446 629.15 450.346 629.15 450.346C629.15 450.346 635.174 452.18 640.24 448.633C640.24 448.633 645.394 396.632 634.98 381.97C629.454 374.188 633.608 301.109 611.206 300.476C588.803 299.842 581.904 310.832 581.904 310.832" fill="#2B478B"/>
<path d="M591.541 231.623C594.388 233.141 597.686 233.586 600.834 232.877C603.075 232.373 605.207 231.472 607.131 230.217C608.029 229.653 608.877 229.012 609.665 228.301C609.665 228.301 609.553 228.141 609.367 227.825C608.393 226.16 605.441 220.173 606.754 210.552C606.773 210.428 605.819 210.605 604.38 210.946C600.099 211.96 591.493 214.403 591.11 214.51C591.11 214.51 591.006 216.533 590.651 220.159C590.62 220.48 590.589 220.815 590.552 221.159C590.51 221.585 590.465 222.035 590.411 222.5C590.014 226.27 591.538 231.623 591.538 231.623" fill="#5B3C11"/>
<path d="M590.648 220.159C597.038 221.627 606.579 212.186 606.579 212.186C605.904 211.682 605.169 211.266 604.391 210.946C600.11 211.96 591.504 214.403 591.121 214.51C591.121 214.51 591.017 216.533 590.662 220.159" fill="black"/>
<path d="M588.476 214C590.421 214.653 592.423 215.12 594.455 215.395C599.355 216.057 605.799 215.676 607.823 209.734C611.231 199.749 615.587 193.765 605.554 189.688C600.183 187.505 596.747 187.389 594.413 188.223C592.385 188.942 591.191 190.376 590.284 191.799C588.336 194.853 584.418 212.25 588.476 214Z" fill="#5B3C11"/>
<path d="M582.388 192.585C588.198 196.763 596.232 192.655 598.722 193.768C601.211 194.881 601.667 199.065 601.712 200.395C601.757 201.725 601.932 202.849 605.32 202.051C605.883 201.922 606.274 201.958 606.55 202.125C607.959 202.97 606.159 207.004 605.618 207.878C605.618 207.878 604.838 210.777 606.567 212.186C606.779 212.355 610.178 213.84 618.367 201.299C619.657 199.327 620.885 194.895 618.896 190.627C616.908 186.358 608.609 182.231 601.569 180.042C598.93 179.222 596.976 179.253 595.446 179.813C592.892 180.746 591.532 183.16 590.183 185.583C587.916 189.655 582.379 192.585 582.379 192.585" fill="black"/>
<path d="M619.767 314.597C619.767 314.597 616.95 315.202 613.399 315.805C609.921 316.388 605.728 316.963 602.768 316.932C587.617 316.814 574.936 312.351 574.936 312.351C572.089 312.351 570.788 307.939 570.321 301.783C570.005 297.613 570.073 292.64 570.298 287.696C570.374 286.093 570.464 284.489 570.563 282.92C570.763 279.807 570.996 276.82 571.208 274.186C571.408 271.707 571.588 269.532 571.695 267.847C571.695 267.847 571.292 256.047 571.45 245.668C571.565 238.219 575.742 231.437 576.801 230.333C579.831 227.124 588.628 225.095 590.377 224.816L590.583 224.785C597.809 228.842 607.539 223.359 607.539 223.359C607.761 223.396 607.975 223.447 608.189 223.495C608.905 223.34 616.207 224.424 617.908 225.351C622.11 227.642 624.548 253.064 624.548 253.064C625.25 270.329 624.368 297.982 625.734 308.536C626.185 312.013 622.822 313.889 619.778 314.599" fill="#AEC3FF"/>
<path d="M608.13 223.503C608.13 223.503 597.364 234.612 589.668 232.336C589.668 232.336 588.643 230.834 592.106 230.364C595.57 229.893 599.316 230.082 608.13 223.512" fill="#9DB0F4"/>
<path d="M588.4 207.554C588.4 207.554 588.189 208.847 591.194 209.878C591.194 209.878 593.715 210.743 594.176 209.419C594.176 209.419 592.171 207.509 588.4 207.554Z" fill="white"/>
<path d="M614.033 265.531C614.033 265.531 598.398 291.694 589.533 296.3C583.534 299.399 575.136 301.053 570.326 301.791C570.011 297.619 570.079 292.649 570.304 287.704C576.66 286.935 586.336 285.707 586.336 285.707L614.033 265.531Z" fill="#9DB0F4"/>
<path d="M593.439 252.385L585.103 282.481C585.103 282.481 575.297 283.101 570.563 282.929C570.763 279.815 570.769 279.711 570.98 277.068C570.98 277.068 582.244 271.197 593.439 252.385Z" fill="#9DB0F4"/>
<path d="M543.255 284.709C543.255 284.709 540.455 281.309 538.949 280.832C537.442 280.356 534.527 278.1 534.161 279.029C533.795 279.959 536.118 281.393 535.995 282.455C535.871 283.518 528.546 285.222 528.594 286.349C528.642 287.476 530.314 290.192 533.1 289.879C535.885 289.567 542.956 287.89 544.415 288.614C545.874 289.338 543.252 284.709 543.252 284.709" fill="#5B3C11"/>
<path d="M625.422 242.961C625.422 242.961 625.914 258.902 589.6 290.882L582.306 277.815C580.963 277.032 605.768 223.658 612.895 224.084C626.708 224.909 625.422 242.961 625.422 242.961Z" fill="#AEC3FF"/>
<path d="M586.635 276.248C586.635 276.248 545.336 280.973 543.807 281.796C542.277 282.619 538.997 285.811 540.089 289.823C540.089 289.823 561.469 292.511 573.232 292.46C583.371 292.418 589.941 290.789 589.941 290.789L586.635 276.248Z" fill="#AEC3FF"/>
<path d="M687.095 465.338H7.31823C7.09417 465.338 6.87928 465.249 6.72084 465.09C6.5624 464.932 6.47339 464.717 6.47339 464.493V464.048C6.47339 463.823 6.5624 463.608 6.72084 463.45C6.87928 463.291 7.09417 463.202 7.31823 463.202H687.095C687.319 463.202 687.534 463.291 687.693 463.45C687.851 463.608 687.94 463.823 687.94 464.048V464.493C687.94 464.717 687.851 464.932 687.693 465.09C687.534 465.249 687.319 465.338 687.095 465.338Z" fill="#2E3552"/>
</svg>
