<svg width="621" height="556" viewBox="0 0 621 556" fill="none" xmlns="http://www.w3.org/2000/svg">
<g clip-path="url(#clip0_1423_212)">
<mask id="mask0_1423_212" style="mask-type:alpha" maskUnits="userSpaceOnUse" x="0" y="0" width="621" height="556">
<path d="M621 0H0V556H621V0Z" fill="white"/>
</mask>
<g mask="url(#mask0_1423_212)">
<mask id="mask1_1423_212" style="mask-type:alpha" maskUnits="userSpaceOnUse" x="0" y="0" width="621" height="556">
<path d="M621 0H0V556H621V0Z" fill="white"/>
</mask>
<g mask="url(#mask1_1423_212)">
<path d="M603.015 402.158C592.859 379 573.353 359.674 549.919 350.16C525.516 340.254 497.494 343.862 471.789 340.541C449.455 337.66 433.357 327.67 420.025 309.907C407.252 292.887 395.803 274.038 374.935 266.163C358.434 259.941 339.673 261.664 323.272 268.149C293.05 280.095 270.227 305.492 251.003 330.796C233.452 353.895 219.125 379.19 186.678 380.018C154.23 380.846 123.266 362.276 90.5575 367.189C47.3183 373.694 11.3186 409.762 3.7925 452.719C-3.27849 492.969 14.4622 532.006 44.9416 554.948H568.81C607.229 514.103 627.371 457.678 603.015 402.158Z" fill="#F7F0E3"/>
<path d="M129.435 554.944H130.876C141.111 543.578 148.884 530.21 153.708 515.683C161.773 491.642 161.436 466.41 152.751 444.638C148.36 433.654 142.022 423.381 135.895 413.462C129.68 403.404 123.253 393.004 118.892 381.86C117.06 377.148 115.739 372.252 114.952 367.256L113.869 367.125C114.659 372.298 116.014 377.368 117.91 382.244C122.305 393.481 128.761 403.919 135.002 414.02C141.104 423.896 147.416 434.111 151.773 445.031C160.361 466.575 160.694 491.541 152.709 515.345C147.83 530.045 139.898 543.541 129.435 554.944Z" fill="white"/>
<path d="M566.278 509.144C577.074 511.45 587.474 513.516 597.537 514.817C597.709 514.483 597.874 514.149 598.047 513.816C587.904 512.523 577.398 510.436 566.497 508.109C549.898 504.564 531.943 500.724 514.105 500.724C503.069 500.724 492.091 502.199 481.527 506.119C477.514 507.615 473.654 509.497 470.002 511.737C460.466 507.665 450.879 503.217 441.385 498.334C448.273 493.129 455.236 488.053 462.273 483.105C514.522 446.535 562.734 425.814 609.336 419.9C609.243 419.558 609.146 419.216 609.049 418.874C562.342 424.788 514.021 445.593 461.692 482.239C454.492 487.274 447.38 492.46 440.357 497.797C429.564 492.23 419.065 486.111 408.9 479.463C390.358 467.293 368.345 449.927 349.104 426.853C423.665 418.468 499.584 407.903 561.579 366.365C563.931 364.789 566.539 362.926 569.24 360.818L568.338 360.185C565.751 362.196 563.252 363.987 560.993 365.486C499.015 407.012 422.957 417.496 348.295 425.894C334.701 409.419 322.552 390.042 314.107 367.624C300.955 332.701 301.651 298.429 316.012 273.598C316.635 272.521 317.297 271.461 317.975 270.409C317.373 270.684 316.779 270.971 316.185 271.254C315.819 271.854 315.458 272.458 315.102 273.066C300.58 298.171 299.86 332.773 313.121 367.991C321.519 390.292 333.559 409.58 347.047 426.03C342.724 426.514 338.405 426.994 334.09 427.47C318.544 429.189 302.485 430.968 286.855 432.962C281.158 433.697 275.364 434.554 269.578 435.632C257.236 409.508 243.658 383.993 226.107 362.115L225.349 362.855C242.748 384.572 256.241 409.893 268.525 435.86C243.376 440.671 218.956 449.707 205.918 470.744C193.74 490.392 193.753 517.55 205.952 551.467C206.373 552.636 206.806 553.795 207.25 554.944H208.375C207.895 553.677 207.414 552.409 206.942 551.108C194.857 517.512 194.815 490.662 206.812 471.302C219.698 450.514 243.983 441.596 268.993 436.848C273.354 446.099 277.572 455.435 281.761 464.704L282.216 465.709C296.767 497.907 311.815 528.981 331.519 554.944H332.834C312.948 528.93 297.816 497.675 283.177 465.274L282.722 464.268C278.567 455.072 274.386 445.821 270.08 436.645C275.735 435.598 281.42 434.761 287.007 434.039C302.599 432.024 318.679 430.237 334.224 428.526C338.761 428.025 343.308 427.519 347.865 427.01C367.291 450.446 389.583 468.053 408.339 480.363C418.389 486.935 428.766 492.989 439.43 498.502C421.508 512.092 404.075 526.383 387.055 540.323C381.155 545.156 375.201 550.023 369.192 554.923H370.877C376.546 550.313 382.165 545.719 387.733 541.143C404.871 527.084 422.426 512.688 440.475 499.018C449.918 503.889 459.437 508.311 468.936 512.396C455.961 520.668 445.384 533.48 438.991 549.034C438.191 550.982 437.491 552.95 436.842 554.923H437.955C438.566 553.085 439.219 551.252 439.965 549.431C446.378 533.831 457.04 521.035 470.116 512.895C496.63 524.182 522.684 532.568 545.073 539.208L545.916 539.458C555.355 542.254 565.005 545.118 573.538 549.723C573.779 549.452 574.019 549.178 574.255 548.903C565.578 544.185 555.789 541.299 546.215 538.444L545.372 538.194C523.211 531.621 497.451 523.342 471.207 512.219C474.608 510.184 478.188 508.464 481.902 507.082C509.238 496.944 539.549 503.403 566.286 509.114" fill="white"/>
<path d="M47.5669 440.735C52.2022 459.829 50.1416 480.443 41.8696 497.307C36.4505 508.349 28.6252 518.348 18.9879 526.932C19.1775 527.232 19.3756 527.528 19.5694 527.828C29.3626 519.126 37.3143 508.983 42.8135 497.772C51.1951 480.693 53.2978 459.812 48.5866 440.485C44.9079 425.379 37.5082 412.605 27.2852 403.311L26.6067 404.122C36.657 413.234 43.9387 425.831 47.5669 440.713" fill="white"/>
<path d="M286 198.865C295.178 208.269 299.291 224.106 294.23 238.705C289.329 252.844 278.588 264.558 265.685 272.077C255.302 278.135 241.758 281.477 231.552 275.136C223.92 270.392 219.963 261.094 219.753 252.096C219.542 243.098 222.551 234.354 226.28 226.146C231.539 214.609 238.614 203.419 249.158 196.403C263.687 186.733 277.189 189.821 286.013 198.857" fill="#F7F0E3"/>
<path d="M164.344 34.0313H88.3536V0H164.344V34.0313ZM89.9339 32.4472H162.768V1.58413H89.9339V32.4472Z" fill="#E9DDCA"/>
<path d="M114.91 66.5798H38.9156V32.5273H114.91V66.5798ZM40.4959 64.9957H113.33V34.1284H40.4959V64.9957Z" fill="#E9DDCA"/>
<path d="M596.736 102.842C591.82 86.4401 583.166 71.3634 570.774 57.6117C558.382 43.8601 541.458 32.4867 520 23.4917C498.551 14.5023 471.301 10.0076 438.25 10.0076C411.882 10.0076 385.008 13.5715 357.629 20.6994C330.249 27.8273 306.462 38.0136 286.266 51.2583L312.51 123.495L298.444 134.9L318.844 140.907C338.978 130.344 357.322 122.672 373.878 117.893C390.433 113.114 408.004 110.737 426.59 110.762C445.187 110.762 459.268 115.257 468.83 124.247C478.393 133.236 483.169 144.086 483.158 156.795C483.158 172.138 478.254 185.76 468.447 197.661C458.64 209.563 447.78 221.599 435.869 233.771C427.618 242.22 419.612 250.942 411.849 259.937C404.104 268.933 397.226 278.646 391.311 288.945C385.273 299.463 380.465 310.644 376.983 322.267C373.351 334.174 371.543 347.529 371.56 362.331C371.56 367.108 371.661 372.794 371.939 379.406C371.986 380.626 372.049 381.813 372.12 382.988H352.833L373.878 397.253H476.196C475.636 393.579 475.376 389.865 475.417 386.148V376.601C475.45 367.468 477.293 358.433 480.84 350.021C484.49 341.236 489.04 332.855 494.417 325.013C499.888 317.011 505.979 309.454 512.634 302.413C519.346 295.257 525.807 288.506 532.018 282.161C540.269 273.712 548.79 264.723 557.58 255.193C566.223 245.865 574.009 235.776 580.845 225.048C587.681 214.207 593.267 202.623 597.495 190.518C601.886 178.093 604.089 164.471 604.106 149.652C604.123 134.833 601.666 119.231 596.736 102.846" fill="#E49B31"/>
<path d="M404.926 105.735C386.525 105.735 369.161 108.035 352.833 112.634C336.506 117.233 318.376 124.658 298.444 134.909L266.249 48.1576C286.173 35.3578 309.673 25.501 336.749 18.5872C363.825 11.6733 390.382 8.21497 416.422 8.21216C449.091 8.21216 476.024 12.5618 497.22 21.2612C518.416 29.9605 535.148 40.9691 547.416 54.2871C559.662 67.6107 568.216 82.2016 573.079 98.0598C577.942 113.918 580.369 129.017 580.361 143.357C580.361 157.72 578.182 170.903 573.825 182.906C569.644 194.642 564.13 205.857 557.391 216.329C550.621 226.73 542.924 236.494 534.395 245.502C525.72 254.728 517.3 263.429 509.137 271.604C503.001 277.749 496.617 284.282 489.984 291.201C483.409 298.003 477.383 305.318 471.961 313.075C466.658 320.65 462.161 328.761 458.544 337.276C455.043 345.399 453.219 354.149 453.184 362.998V372.224C453.142 375.822 453.401 379.417 453.959 382.971H352.825C351.719 377.275 351.076 371.498 350.903 365.697C350.629 359.298 350.528 353.797 350.528 349.172C350.528 334.851 352.316 321.928 355.893 310.401C359.34 299.133 364.093 288.31 370.056 278.152C375.916 268.176 382.713 258.783 390.354 250.102C398.009 241.406 405.923 232.964 414.095 224.777C425.841 213.003 436.573 201.353 446.29 189.829C455.965 178.305 460.811 165.123 460.828 150.281C460.828 137.983 456.106 127.484 446.661 118.784C437.216 110.085 423.304 105.735 404.926 105.735Z" fill="#FBC343"/>
<path d="M483.2 496.804C483.2 515.298 477.227 529.575 465.282 539.635C453.337 549.694 439.831 554.731 424.765 554.745C409.671 554.745 396.158 549.708 384.227 539.635C372.296 529.561 366.332 515.284 366.335 496.804C366.335 478.33 372.3 464.053 384.231 453.974C402.613 438.42 429.814 434.964 451.338 445.871C470.44 455.558 483.196 475.23 483.196 496.804" fill="#E49B31"/>
<path d="M463.184 496.804C463.184 515.298 457.211 529.575 445.266 539.635C433.321 549.694 419.817 554.731 404.753 554.745C389.659 554.745 376.146 549.708 364.215 539.635C352.284 529.561 346.32 515.284 346.323 496.804C346.323 478.33 352.287 464.053 364.215 453.974C376.143 443.894 389.656 438.857 404.753 438.863C419.825 438.863 433.329 443.9 445.266 453.974C457.203 464.047 463.175 478.324 463.184 496.804Z" fill="#FBC343"/>
<path d="M158.528 226.357C159.758 228.161 160.425 230.29 160.448 232.475C160.47 234.659 159.846 236.802 158.654 238.63C157.462 240.459 155.755 241.893 153.751 242.749C151.746 243.606 149.533 243.848 147.391 243.444C145.249 243.04 143.275 242.008 141.718 240.48C140.161 238.951 139.092 236.994 138.644 234.856C138.197 232.718 138.392 230.495 139.205 228.468C140.017 226.441 141.412 224.701 143.211 223.468C144.405 222.649 145.748 222.073 147.165 221.774C148.581 221.475 150.042 221.459 151.464 221.726C152.886 221.993 154.242 222.539 155.454 223.331C156.667 224.123 157.711 225.148 158.528 226.345" fill="#D3DFFF"/>
<path d="M165.528 255.383C165.307 256.602 164.73 257.729 163.87 258.62C163.01 259.51 161.905 260.124 160.696 260.384C159.487 260.645 158.228 260.539 157.079 260.08C155.93 259.622 154.943 258.832 154.243 257.81C153.543 256.788 153.161 255.581 153.146 254.342C153.132 253.102 153.485 251.886 154.161 250.848C154.836 249.81 155.805 248.997 156.942 248.511C158.08 248.026 159.336 247.89 160.551 248.121C161.355 248.268 162.122 248.573 162.809 249.017C163.495 249.462 164.088 250.038 164.551 250.713C165.015 251.387 165.342 252.147 165.512 252.949C165.683 253.75 165.694 254.577 165.545 255.383" fill="#D3DFFF"/>
<path d="M164.887 184.988C163.309 193.449 159.264 201.25 153.262 207.405C147.26 213.561 139.573 217.793 131.171 219.568C122.77 221.342 114.032 220.579 106.063 217.374C98.0944 214.169 91.2528 208.668 86.4039 201.564C81.5549 194.461 78.9164 186.076 78.8221 177.469C78.7278 168.863 81.1819 160.421 85.8741 153.213C90.5663 146.005 97.2856 140.354 105.182 136.975C113.079 133.595 121.798 132.64 130.236 134.229C141.543 136.358 151.545 142.9 158.042 152.419C164.54 161.937 167.002 173.651 164.887 184.988Z" fill="#D3DFFF"/>
<path d="M111.05 176.975C111.05 178.061 110.729 179.123 110.127 180.026C109.525 180.929 108.669 181.633 107.668 182.048C106.667 182.464 105.566 182.573 104.503 182.361C103.44 182.149 102.464 181.626 101.698 180.858C100.932 180.09 100.41 179.111 100.199 178.046C99.9875 176.981 100.096 175.877 100.511 174.873C100.925 173.87 101.627 173.012 102.528 172.409C103.429 171.805 104.488 171.483 105.572 171.483C107.025 171.483 108.418 172.062 109.445 173.092C110.473 174.122 111.05 175.518 111.05 176.975Z" fill="white"/>
<path d="M127.712 176.975C127.712 178.061 127.391 179.123 126.789 180.026C126.187 180.929 125.331 181.633 124.33 182.048C123.329 182.464 122.228 182.573 121.165 182.361C120.102 182.149 119.126 181.626 118.36 180.858C117.594 180.09 117.072 179.111 116.861 178.046C116.65 176.981 116.758 175.877 117.173 174.873C117.587 173.87 118.289 173.012 119.19 172.409C120.091 171.805 121.15 171.483 122.234 171.483C123.687 171.483 125.08 172.062 126.107 173.092C127.135 174.122 127.712 175.518 127.712 176.975Z" fill="white"/>
<path d="M144.37 176.975C144.37 178.061 144.048 179.123 143.446 180.026C142.844 180.929 141.989 181.633 140.988 182.048C139.987 182.464 138.885 182.573 137.823 182.361C136.76 182.149 135.784 181.626 135.018 180.858C134.252 180.09 133.73 179.111 133.519 178.046C133.307 176.981 133.416 175.877 133.83 174.873C134.245 173.87 134.947 173.012 135.848 172.409C136.749 171.805 137.808 171.483 138.891 171.483C140.344 171.483 141.738 172.062 142.765 173.092C143.792 174.122 144.37 175.518 144.37 176.975Z" fill="white"/>
<path d="M91.1644 532.973L95.2182 548.637C96.2717 552.722 100.216 555.485 104.573 555.189C117.864 554.281 145.482 551.019 161.335 539.305L156.826 516.726C135.036 515.493 114.653 516.726 96.9881 522.64C92.5676 524.131 90.014 528.554 91.1475 532.952" fill="#102048"/>
<path d="M116.562 545.443C116.447 545.443 116.335 545.405 116.244 545.334C116.152 545.264 116.086 545.166 116.056 545.055L110.612 525.509C110.574 525.374 110.592 525.229 110.661 525.107C110.729 524.985 110.844 524.896 110.978 524.858C111.113 524.821 111.257 524.838 111.379 524.907C111.5 524.976 111.59 525.091 111.627 525.226L117.072 544.763C117.09 544.83 117.095 544.9 117.087 544.969C117.079 545.038 117.057 545.104 117.023 545.165C116.989 545.225 116.943 545.278 116.889 545.321C116.834 545.364 116.772 545.395 116.705 545.414C116.657 545.42 116.609 545.42 116.562 545.414" fill="white"/>
<path d="M128.327 542.803C128.212 542.803 128.1 542.765 128.008 542.695C127.917 542.625 127.851 542.526 127.821 542.415L122.377 522.877C122.359 522.81 122.353 522.74 122.362 522.671C122.37 522.602 122.392 522.536 122.426 522.476C122.46 522.415 122.506 522.362 122.56 522.319C122.615 522.277 122.677 522.245 122.744 522.226C122.81 522.208 122.88 522.203 122.949 522.211C123.017 522.219 123.084 522.241 123.144 522.275C123.204 522.31 123.257 522.355 123.3 522.41C123.343 522.464 123.374 522.527 123.393 522.594L128.833 542.131C128.852 542.198 128.858 542.268 128.85 542.337C128.842 542.406 128.821 542.472 128.787 542.533C128.753 542.593 128.708 542.646 128.654 542.689C128.599 542.732 128.537 542.764 128.47 542.782C128.423 542.788 128.375 542.788 128.327 542.782" fill="white"/>
<path d="M141.989 448.283L91.3372 463.352L128.955 515.02L182.961 519.328L257.451 487.751L229.141 445.052L141.989 448.283Z" fill="#FBC343"/>
<path d="M204.435 455.461C315.683 422.447 333.55 521.001 159.991 538.942C153.859 532.027 146.696 520.03 143.851 509.997L235.509 467.538L204.435 455.461Z" fill="#FBC343"/>
<path d="M209.163 526.092C203.959 524.402 198.974 521.124 198.974 521.124L181.098 526.742L185.194 546.237L203.765 550.039C209.424 539.664 209.753 531.148 209.163 526.109" fill="#5B3C11"/>
<path d="M144.247 510.681L143.455 509.313C162.574 498.173 211.552 471.412 253.283 463.516L253.574 465.075C212.088 472.924 163.299 499.584 144.247 510.698" fill="#E49B31"/>
<path d="M142.01 448.283C38.448 428.547 11.6347 528.297 185.194 546.237C191.646 539.035 196.361 530.443 198.974 521.124C172.312 503.238 142.507 486.243 109.836 470.051L142.01 448.283Z" fill="#FBC343"/>
<path d="M198.548 521.791C193.626 518.648 188.494 515.324 183.058 511.809C155.785 494.156 124.867 474.145 98.6019 462.735L99.2298 461.282C125.617 472.742 156.59 492.791 183.93 510.479C189.362 513.993 194.49 517.313 199.412 520.452L198.548 521.791Z" fill="#E49B31"/>
<path d="M66.024 497.742L64.6376 496.977C68.527 489.923 74.751 485.149 83.141 482.834L83.5624 484.359C75.4843 486.602 69.7491 490.979 66.024 497.742Z" fill="#E49B31"/>
<path d="M282.127 491.735C278.402 484.976 272.663 480.6 264.585 478.357L265.006 476.832C273.4 479.159 279.624 483.916 283.51 490.97L282.127 491.735Z" fill="#E49B31"/>
<path d="M175.498 545.363L174.343 544.282C182.624 535.411 187.714 526.003 189.893 515.582L191.439 515.907C189.197 526.62 183.985 536.255 175.498 545.363Z" fill="#E49B31"/>
<path d="M260.801 520.283C247.535 512.071 221.818 526.265 215.362 526.983C213.478 527.19 211.304 526.78 209.163 526.092C209.753 531.131 209.424 539.647 203.765 550.022L206.921 550.665C206.921 550.665 228.728 558.691 251.863 554.014C273.215 549.706 271.247 526.742 260.801 520.283Z" fill="#102048"/>
<path d="M242.723 547.158C242.64 547.158 242.558 547.139 242.485 547.101C242.411 547.063 242.347 547.009 242.298 546.942C242.249 546.875 242.217 546.797 242.203 546.715C242.19 546.633 242.196 546.549 242.222 546.47C243.798 541.468 244.484 531.625 239.921 525.019C239.868 524.907 239.857 524.78 239.888 524.661C239.919 524.541 239.991 524.437 240.091 524.365C240.191 524.293 240.314 524.259 240.436 524.268C240.559 524.277 240.675 524.329 240.763 524.415C245.546 531.338 244.843 541.587 243.203 546.804C243.169 546.91 243.103 547.003 243.012 547.069C242.922 547.135 242.814 547.171 242.702 547.171" fill="white"/>
<path d="M232.314 549.14C232.26 549.139 232.206 549.131 232.154 549.114C232.021 549.072 231.911 548.978 231.847 548.853C231.783 548.729 231.771 548.584 231.813 548.451C233.389 543.449 234.076 533.607 229.512 526.996C229.467 526.939 229.434 526.874 229.415 526.804C229.396 526.734 229.391 526.661 229.402 526.589C229.412 526.517 229.437 526.449 229.475 526.387C229.513 526.325 229.564 526.272 229.623 526.231C229.682 526.19 229.75 526.161 229.821 526.147C229.892 526.133 229.965 526.134 230.035 526.149C230.106 526.165 230.173 526.194 230.231 526.237C230.29 526.279 230.339 526.333 230.376 526.396C235.159 533.319 234.455 543.568 232.816 548.785C232.783 548.892 232.716 548.986 232.626 549.053C232.536 549.12 232.427 549.156 232.314 549.156" fill="white"/>
<path d="M123.671 319.665C123.671 319.665 149.747 297.436 148.782 293.212C148.09 290.196 140.708 294.623 140.708 294.623C140.708 294.623 151.065 282.3 150.539 280.805C149.595 278.131 142.431 283.116 142.431 283.116C142.431 283.116 147.273 276.129 144.959 274.988C142.646 273.847 137.598 278.156 137.598 278.156C137.598 278.156 140.547 274.278 139.161 273.26C137.775 272.242 131.799 276.424 131.799 276.424C131.799 276.424 133.944 271.533 129.385 273.387C124.825 275.241 92.8794 304.647 92.8794 304.647L123.671 319.665Z" fill="#5B3C11"/>
<path d="M134.34 293.301C134.216 293.298 134.097 293.252 134.003 293.17C129.528 289.072 127.552 288.075 122.626 286.554C122.492 286.513 122.38 286.42 122.315 286.296C122.25 286.172 122.237 286.027 122.278 285.893C122.319 285.759 122.412 285.647 122.536 285.582C122.659 285.517 122.804 285.503 122.937 285.545C128.053 287.12 130.101 288.151 134.736 292.392C134.814 292.464 134.869 292.558 134.893 292.661C134.917 292.764 134.909 292.873 134.871 292.972C134.833 293.071 134.766 293.156 134.679 293.216C134.592 293.276 134.488 293.308 134.383 293.309" fill="#5B3C11"/>
<path d="M126.486 305.357H126.418C126.35 305.348 126.284 305.325 126.224 305.29C126.164 305.255 126.112 305.208 126.071 305.153C126.029 305.097 125.999 305.034 125.982 304.967C125.965 304.9 125.961 304.83 125.971 304.761C126.481 301.086 127.636 298.788 129.499 297.74C131.091 296.841 133.16 296.934 135.655 298.015C135.721 298.041 135.78 298.081 135.83 298.13C135.88 298.18 135.92 298.24 135.947 298.305C135.973 298.37 135.987 298.441 135.986 298.511C135.985 298.582 135.97 298.652 135.942 298.717C135.914 298.781 135.873 298.84 135.822 298.888C135.77 298.937 135.71 298.975 135.644 299C135.578 299.025 135.508 299.036 135.437 299.033C135.367 299.03 135.297 299.013 135.234 298.982C133.059 298.04 131.302 297.931 130.013 298.661C128.479 299.506 127.484 301.618 127.008 304.909C126.991 305.035 126.929 305.149 126.833 305.233C126.738 305.316 126.616 305.361 126.49 305.361" fill="#5B3C11"/>
<path d="M125.255 283.137C125.183 283.137 125.112 283.123 125.046 283.094C124.98 283.066 124.921 283.024 124.872 282.972C124.776 282.87 124.725 282.734 124.729 282.594C124.733 282.454 124.792 282.321 124.893 282.224L131.437 276.044C131.485 275.989 131.545 275.945 131.611 275.914C131.678 275.884 131.75 275.867 131.823 275.866C131.896 275.865 131.969 275.879 132.036 275.907C132.103 275.936 132.164 275.978 132.214 276.031C132.265 276.085 132.303 276.148 132.328 276.217C132.352 276.286 132.362 276.359 132.357 276.433C132.351 276.506 132.331 276.577 132.297 276.642C132.262 276.706 132.215 276.763 132.158 276.809L125.618 282.993C125.519 283.086 125.39 283.137 125.255 283.137Z" fill="#5B3C11"/>
<path d="M131.311 285.249C131.208 285.247 131.108 285.216 131.023 285.158C130.937 285.101 130.871 285.02 130.831 284.925C130.79 284.83 130.779 284.725 130.796 284.624C130.814 284.523 130.861 284.429 130.931 284.353L137.219 277.789C137.317 277.696 137.447 277.645 137.582 277.646C137.717 277.647 137.846 277.7 137.944 277.793C138.041 277.887 138.099 278.015 138.105 278.15C138.111 278.285 138.065 278.417 137.977 278.52L131.694 285.084C131.645 285.136 131.585 285.178 131.519 285.206C131.453 285.234 131.382 285.249 131.311 285.249Z" fill="#5B3C11"/>
<path d="M137.501 288.945C137.399 288.945 137.299 288.914 137.213 288.858C137.128 288.801 137.061 288.721 137.02 288.627C136.98 288.533 136.967 288.429 136.984 288.328C137.002 288.227 137.048 288.133 137.117 288.058L142.048 282.752C142.095 282.702 142.152 282.661 142.215 282.632C142.278 282.603 142.346 282.587 142.415 282.585C142.485 282.582 142.554 282.594 142.619 282.618C142.683 282.643 142.743 282.68 142.794 282.727C142.844 282.774 142.885 282.831 142.914 282.895C142.942 282.958 142.958 283.026 142.961 283.096C142.963 283.165 142.952 283.234 142.927 283.299C142.903 283.364 142.866 283.424 142.819 283.475L137.888 288.776C137.839 288.83 137.779 288.873 137.712 288.902C137.646 288.931 137.574 288.946 137.501 288.945Z" fill="#5B3C11"/>
<path d="M222.176 468.345L126.84 472.041L116.305 384.914C116.305 384.914 148.221 354.566 160.5 343.389L181.233 342.324C245.55 371.633 235.02 408.224 222.18 468.345" fill="#3A6BEA"/>
<path d="M181.229 342.324C181.229 342.324 254.813 348.631 278.01 399.171C300.711 448.626 207.427 466.233 207.427 466.233L181.229 342.324Z" fill="#3A6BEA"/>
<path d="M97.1145 353.155L127.522 316.057L99.0908 298.784C87.2286 307.051 64.2921 325.777 44.8532 346.983C40.5634 351.664 37.2091 357.122 35.5235 363.15C34.113 368.083 33.808 373.267 34.6302 378.332C36.7371 391.28 46.9012 401.275 60.4658 402.867C72.0499 404.228 116.301 400.755 152.119 390.194L162.654 349.434C157.239 346.354 117.004 345.822 97.1145 353.155Z" fill="#3A6BEA"/>
<g opacity="0.8">
<mask id="mask2_1423_212" style="mask-type:alpha" maskUnits="userSpaceOnUse" x="49" y="311" width="232" height="137">
<path d="M280.792 311.051H49.7161V447.008H280.792V311.051Z" fill="white"/>
</mask>
<g mask="url(#mask2_1423_212)">
<path d="M242.634 362.381L243.111 362.272C242.778 362.073 242.445 361.883 242.112 361.689C236.718 362.935 231.156 364.223 225.677 364.87C222.382 365.267 211.371 365.998 208.152 358.639C206.55 354.98 207.764 350.912 209.572 348.052L208.784 347.829C206.93 350.853 205.741 355.099 207.427 358.956C210.865 366.813 222.34 366.069 225.774 365.655C231.417 364.971 237.127 363.657 242.63 362.381" fill="white"/>
<path d="M276.978 419.38C273.459 418.02 269.814 416.609 266.022 416.972C259.322 417.606 253.591 424.247 253.245 431.758C253.009 436.89 254.964 442.268 258.69 446.995L259.364 446.572C255.719 441.976 253.806 436.759 254.033 431.787C254.366 424.64 259.772 418.337 266.093 417.737C269.726 417.399 273.114 418.709 276.7 420.098C277.964 420.593 279.283 421.091 280.606 421.518C280.674 421.264 280.741 421.007 280.8 420.749C279.511 420.327 278.238 419.845 276.986 419.359" fill="white"/>
<path d="M91.2486 394.191C86.6554 390.389 79.517 389.362 71.6665 391.398C64.6713 393.211 58.6707 396.806 54.5494 401.558C54.8191 401.647 55.0846 401.744 55.3585 401.824C59.3702 397.317 65.1475 393.908 71.8645 392.163C79.4496 390.194 86.3478 391.158 90.743 394.799C92.7658 396.545 94.3532 398.741 95.3783 401.212L96.1958 401.114C95.1167 398.444 93.4178 396.071 91.2402 394.191" fill="white"/>
<path d="M49.7246 341.805C58.3337 339.659 66.7321 336.647 74.4815 332.173C77.4313 330.484 80.7139 328.329 83.04 325.165C85.5136 321.786 86.3353 317.789 85.2397 314.444C84.8076 313.16 84.0716 312 83.0948 311.064L82.488 311.567C83.4024 312.43 84.0887 313.507 84.4854 314.701C85.5052 317.806 84.7256 321.545 82.4037 324.709C80.1661 327.755 76.9256 329.85 74.0854 331.502C66.7784 335.726 58.8731 338.641 50.757 340.749L49.7246 341.805Z" fill="white"/>
</g>
</g>
<path d="M187.963 322.955V324.307L187.748 345.315L187.723 347.588C187.575 350.958 186.135 354.141 183.704 356.473C181.272 358.805 178.037 360.107 174.672 360.107C171.307 360.107 168.072 358.805 165.64 356.473C163.209 354.141 161.77 350.958 161.621 347.588L161.369 321.629L187.963 322.955Z" fill="#5B3C11"/>
<path d="M187.942 324.307L187.727 345.315C176.08 340.558 171.292 327.919 171.292 327.919L187.942 324.307Z" fill="black"/>
<path d="M192.577 287.644C196.753 292.667 208.94 321.118 196.584 330.826C182.678 341.75 161.524 323.796 161.524 323.796L158.688 290.66L177.053 285.807L192.577 287.644Z" fill="#5B3C11"/>
<path d="M164.175 295.903C164.175 298.088 163.529 300.223 162.318 302.04C161.107 303.857 159.386 305.273 157.373 306.109C155.359 306.945 153.143 307.164 151.006 306.737C148.868 306.311 146.905 305.259 145.364 303.714C143.823 302.169 142.773 300.201 142.348 298.058C141.923 295.915 142.141 293.694 142.975 291.675C143.809 289.657 145.221 287.932 147.033 286.718C148.846 285.504 150.976 284.856 153.156 284.856C156.078 284.856 158.881 286.02 160.948 288.092C163.014 290.163 164.175 292.973 164.175 295.903Z" fill="#FBC343"/>
<path d="M166.712 309.176C165.519 302.282 164.795 297.559 171.743 294.006C171.743 294.006 196.231 298.467 200.904 289.207C205.577 279.947 198.456 265.331 183.542 275.482C145.364 268.009 140.244 303.823 151.82 315.766L163.244 314.004C163.79 313.921 164.315 313.729 164.786 313.44C165.258 313.15 165.667 312.77 165.99 312.32C166.313 311.871 166.543 311.361 166.667 310.821C166.791 310.281 166.806 309.722 166.712 309.176Z" fill="black"/>
<path d="M187.297 309.193C187.297 309.515 187.202 309.83 187.023 310.099C186.844 310.367 186.59 310.576 186.293 310.699C185.996 310.822 185.669 310.855 185.353 310.792C185.038 310.729 184.748 310.574 184.52 310.346C184.293 310.118 184.138 309.827 184.075 309.511C184.012 309.194 184.045 308.867 184.168 308.569C184.291 308.271 184.499 308.016 184.767 307.837C185.034 307.658 185.349 307.562 185.67 307.562C186.102 307.562 186.516 307.734 186.821 308.04C187.126 308.345 187.297 308.76 187.297 309.193Z" fill="#102048"/>
<path d="M198.316 303.756C198.317 304.08 198.222 304.396 198.043 304.666C197.864 304.935 197.61 305.145 197.312 305.27C197.013 305.394 196.685 305.427 196.368 305.364C196.052 305.301 195.761 305.145 195.532 304.916C195.304 304.687 195.149 304.395 195.086 304.078C195.023 303.76 195.056 303.431 195.18 303.133C195.304 302.834 195.513 302.578 195.782 302.399C196.051 302.22 196.367 302.124 196.69 302.125C197.121 302.125 197.535 302.297 197.84 302.603C198.145 302.909 198.316 303.323 198.316 303.756Z" fill="#102048"/>
<path d="M195.56 314.215C195.471 314.215 195.383 314.189 195.308 314.139C195.233 314.09 195.174 314.019 195.139 313.937C195.103 313.854 195.093 313.763 195.109 313.674C195.124 313.585 195.166 313.503 195.228 313.438C195.881 312.75 196.597 311.778 196.294 311.077C195.99 310.376 194.663 310.033 194.06 310.033C192.762 310.033 192.139 307.718 192.025 307.254C192.007 307.139 192.032 307.021 192.097 306.924C192.161 306.826 192.26 306.757 192.373 306.73C192.486 306.702 192.605 306.718 192.707 306.774C192.809 306.831 192.886 306.923 192.923 307.034C193.159 308.014 193.694 309.108 194.06 309.108C194.68 309.108 196.589 309.404 197.141 310.713C197.541 311.647 197.141 312.779 195.898 314.093C195.854 314.139 195.802 314.175 195.744 314.2C195.686 314.224 195.623 314.237 195.56 314.237" fill="#102048"/>
<path d="M195.645 320.408C195.554 320.408 195.464 320.381 195.388 320.332C192.324 318.258 189.227 319.994 189.197 320.015C189.145 320.045 189.087 320.065 189.027 320.072C188.967 320.08 188.906 320.076 188.848 320.06C188.789 320.043 188.735 320.016 188.687 319.979C188.639 319.941 188.599 319.895 188.57 319.842C188.539 319.79 188.519 319.732 188.511 319.672C188.502 319.612 188.506 319.551 188.522 319.492C188.538 319.433 188.565 319.378 188.602 319.33C188.639 319.283 188.685 319.243 188.738 319.213C188.886 319.128 192.366 317.172 195.902 319.563C195.985 319.618 196.047 319.698 196.081 319.792C196.115 319.885 196.117 319.987 196.088 320.082C196.059 320.177 196.001 320.26 195.921 320.319C195.841 320.378 195.744 320.409 195.645 320.408Z" fill="#102048"/>
<path d="M184.958 302.125C185.881 303.874 184.267 304.237 182.379 305.23C180.491 306.223 178.553 306.607 178.111 305.775C177.668 304.943 178.844 303.447 180.732 302.442C182.619 301.437 184.242 300.752 184.946 302.125" fill="#102048"/>
<path d="M191.852 298.974C192.274 300.533 193.42 299.848 195.105 299.396C196.791 298.944 198.156 298.104 197.962 297.36C197.769 296.617 196.243 296.372 194.558 296.815C192.872 297.259 191.536 297.757 191.852 298.966" fill="#102048"/>
<path d="M163.922 311.668C167.15 314.165 167.993 318.503 165.797 321.35C163.602 324.198 159.207 324.485 155.979 321.984C152.751 319.483 151.908 315.153 154.104 312.302C156.299 309.45 160.69 309.167 163.922 311.668Z" fill="#877D77"/>
<path d="M162.784 319.242C162.724 319.242 162.664 319.23 162.608 319.207C162.552 319.183 162.501 319.149 162.458 319.106C162.415 319.063 162.382 319.011 162.359 318.955C162.336 318.899 162.325 318.838 162.325 318.778C162.329 318.112 162.169 317.455 161.86 316.865C161.55 316.276 161.101 315.772 160.551 315.398C160.119 315.084 159.617 314.882 159.089 314.808C158.56 314.735 158.022 314.792 157.521 314.976C157.465 315.007 157.402 315.027 157.337 315.032C157.273 315.038 157.208 315.03 157.147 315.009C157.086 314.987 157.029 314.953 156.982 314.909C156.935 314.864 156.898 314.81 156.873 314.75C156.848 314.69 156.836 314.626 156.838 314.561C156.84 314.496 156.856 314.432 156.884 314.373C156.912 314.315 156.952 314.263 157.002 314.221C157.051 314.179 157.109 314.149 157.172 314.131C157.811 313.887 158.5 313.804 159.179 313.889C159.858 313.975 160.506 314.226 161.065 314.621C161.74 315.079 162.292 315.696 162.672 316.418C163.053 317.139 163.251 317.944 163.248 318.761C163.248 318.884 163.199 319.002 163.112 319.089C163.025 319.176 162.907 319.225 162.784 319.225" fill="#102048"/>
<path d="M96.7123 352.814L80.0818 370.849L80.8554 371.566L97.4859 353.531L96.7123 352.814Z" fill="#102048"/>
<path d="M213.9 430.304L213.592 429.295C225.703 425.599 237.451 421.171 248.1 407.823L248.943 408.482C238.104 422.067 226.187 426.557 213.916 430.304" fill="#102048"/>
<path d="M221.261 389.409H118.264C114.56 389.409 111.56 392.666 111.56 396.683V470.402C111.56 474.415 114.56 477.672 118.264 477.672H221.261C224.965 477.672 227.97 474.415 227.97 470.402V396.666C227.97 392.649 224.965 389.392 221.261 389.392" fill="#D3DFFF"/>
<path d="M175.203 428.881C175.398 428.89 175.582 428.975 175.715 429.119C175.847 429.263 175.918 429.454 175.911 429.65V437.431C175.918 437.627 175.847 437.817 175.715 437.961C175.582 438.105 175.398 438.191 175.203 438.2H164.344C164.247 438.196 164.152 438.173 164.064 438.132C163.976 438.092 163.896 438.034 163.831 437.963C163.765 437.891 163.714 437.807 163.68 437.716C163.647 437.625 163.632 437.528 163.636 437.431V429.65C163.629 429.454 163.699 429.263 163.832 429.119C163.964 428.975 164.148 428.89 164.344 428.881H175.22M175.22 426.769H164.344C163.59 426.778 162.87 427.086 162.342 427.626C161.814 428.166 161.522 428.894 161.529 429.65V437.431C161.522 438.187 161.814 438.915 162.342 439.455C162.87 439.995 163.59 440.303 164.344 440.312H175.22C175.974 440.303 176.694 439.995 177.221 439.455C177.749 438.915 178.041 438.187 178.035 437.431V429.65C178.041 428.894 177.749 428.166 177.221 427.626C176.694 427.086 175.974 426.778 175.22 426.769Z" fill="#1F3C88"/>
</g>
</g>
</g>
<defs>
<clipPath id="clip0_1423_212">
<rect width="621" height="556" fill="white"/>
</clipPath>
</defs>
</svg>
