<svg width="56" height="94" viewBox="0 0 56 94" fill="none" xmlns="http://www.w3.org/2000/svg">
<path d="M33.8125 65.6875H18.875C18.9167 61.8958 19.2292 58.6458 19.8125 55.9375C20.4375 53.2292 21.4583 50.7917 22.875 48.625C24.2917 46.4167 26.2083 44.1667 28.625 41.875C30.5417 40.0833 32.25 38.3958 33.75 36.8125C35.2917 35.1875 36.5 33.5 37.375 31.75C38.25 29.9583 38.6875 27.9375 38.6875 25.6875C38.6875 23.1458 38.2708 21.0208 37.4375 19.3125C36.6458 17.6042 35.4583 16.3125 33.875 15.4375C32.3333 14.5208 30.3958 14.0625 28.0625 14.0625C26.1458 14.0625 24.3333 14.4583 22.625 15.25C20.9167 16.0417 19.5417 17.2708 18.5 18.9375C17.4583 20.5625 16.8958 22.6875 16.8125 25.3125H0.25C0.375 19.8542 1.66667 15.3125 4.125 11.6875C6.58333 8.02083 9.89583 5.29167 14.0625 3.5C18.2292 1.66667 22.8958 0.75 28.0625 0.75C33.7708 0.75 38.6458 1.70833 42.6875 3.625C46.7708 5.5 49.875 8.25 52 11.875C54.1667 15.5 55.25 19.875 55.25 25C55.25 28.6667 54.5417 31.9583 53.125 34.875C51.7083 37.75 49.8333 40.4375 47.5 42.9375C45.1667 45.4375 42.6458 47.9583 39.9375 50.5C37.5625 52.625 35.9583 54.8958 35.125 57.3125C34.2917 59.7292 33.8542 62.5208 33.8125 65.6875ZM17.3125 85.125C17.3125 82.625 18.1458 80.5417 19.8125 78.875C21.5208 77.2083 23.8125 76.375 26.6875 76.375C29.5625 76.375 31.8333 77.2083 33.5 78.875C35.2083 80.5417 36.0625 82.625 36.0625 85.125C36.0625 87.5417 35.2083 89.5833 33.5 91.25C31.8333 92.9167 29.5625 93.75 26.6875 93.75C23.8125 93.75 21.5208 92.9167 19.8125 91.25C18.1458 89.5833 17.3125 87.5417 17.3125 85.125Z" fill="#E86030"/>
</svg>
